<svg xmlns="http://www.w3.org/2000/svg" viewBox="0 0 320 320" fill="none">
  <defs>
    <linearGradient id="bg" x1="0" x2="1" y1="0" y2="1">
      <stop offset="0%" stop-color="#3ecbff"/>
      <stop offset="100%" stop-color="#67ffb6"/>
    </linearGradient>
  </defs>
  <rect x="10" y="10" width="300" height="300" rx="70" fill="#0b1225"/>
  <circle cx="160" cy="168" r="90" fill="#f3c9a8"/>
  <path d="M78 154c8-48 35-75 82-75 47 0 74 27 82 75-18-9-42-16-82-16s-64 7-82 16Z" fill="#1e293b"/>
  <ellipse cx="128" cy="172" rx="10" ry="9" fill="#111827"/>
  <ellipse cx="192" cy="172" rx="10" ry="9" fill="#111827"/>
  <path d="M130 215c9 12 20 17 30 17s21-5 30-17" stroke="#b91c1c" stroke-width="8" stroke-linecap="round"/>
  <circle cx="102" cy="198" r="10" fill="#ef4444" fill-opacity=".35"/>
  <circle cx="218" cy="198" r="10" fill="#ef4444" fill-opacity=".35"/>
  <circle cx="260" cy="60" r="16" fill="url(#bg)"/>
</svg>
